<svg xmlns="http://www.w3.org/2000/svg" viewBox="0 0 2168.25 1663.08"><defs><style>.cls-1{fill:#0f141e;}.cls-2{fill:#fff;}</style></defs><title>icon</title><g id="Layer_2" data-name="Layer 2"><g id="Layer_1-2" data-name="Layer 1"><rect class="cls-1" width="2168.25" height="1663.08" rx="671.39"/><path class="cls-2" d="M842.56,999.5H642.27l-32.11,91.15H473.32l194.18-516H818.86l194.18,516H874.67ZM742.42,713.56,676.67,902.47H808.92Z"/><path class="cls-2" d="M1420.49,1095.8c-152.13,0-276-109.53-276-264.63s123.85-263.89,276-263.89c152.89,0,274.44,108.79,274.44,263.89S1572.62,1095.8,1420.49,1095.8Zm0-114.67c85.62,0,141.42-59.54,141.42-150,0-91.88-55.8-149.95-141.42-149.95-87.15,0-142.19,58.07-142.19,149.95C1278.3,921.59,1333.34,981.13,1420.49,981.13Z"/></g></g></svg>