<svg xmlns="http://www.w3.org/2000/svg" viewBox="0 0 1221.61 528.51"><defs><style>.cls-1{fill:#0f141e;}</style></defs><title>logo</title><g id="Layer_2" data-name="Layer 2"><g id="Layer_1-2" data-name="Layer 1"><path class="cls-1" d="M369.24,432.22H169l-32.11,91.15H0l194.17-516H345.54l194.17,516H401.34ZM269.09,146.28,203.35,335.19H335.6Z"/><path class="cls-1" d="M947.16,528.51c-152.13,0-276-109.52-276-264.62S795,0,947.16,0c152.9,0,274.45,108.79,274.45,263.89S1099.29,528.51,947.16,528.51Zm0-114.67c85.62,0,141.43-59.54,141.43-149.95,0-91.88-55.81-150-141.43-150C860,113.93,805,172,805,263.89,805,354.3,860,413.84,947.16,413.84Z"/></g></g></svg>